<mxfile host="app.diagrams.net" modified="2024-01-31T08:43:35.994Z" agent="Mozilla/5.0 (Macintosh; Intel Mac OS X 10_15_7) AppleWebKit/537.36 (KHTML, like Gecko) Chrome/120.0.0.0 Safari/537.36" etag="CngNLPI7l8An_sQH6VCX" version="22.1.18" type="github">
  <diagram name="Page-1" id="yhFDRbWmJPE1-cxSHeno">
    <mxGraphModel dx="3154" dy="1273" grid="1" gridSize="10" guides="1" tooltips="1" connect="1" arrows="1" fold="1" page="1" pageScale="1" pageWidth="850" pageHeight="1100" math="0" shadow="0">
      <root>
        <mxCell id="0" />
        <mxCell id="1" parent="0" />
        <mxCell id="GNEB_PSAj2UN0njGCIsx-6" value="" style="rounded=0;whiteSpace=wrap;html=1;" vertex="1" parent="1">
          <mxGeometry x="370" y="290" width="500" height="410" as="geometry" />
        </mxCell>
        <mxCell id="GNEB_PSAj2UN0njGCIsx-5" value="" style="rounded=0;whiteSpace=wrap;html=1;" vertex="1" parent="1">
          <mxGeometry x="-170" y="290" width="500" height="410" as="geometry" />
        </mxCell>
        <mxCell id="GNEB_PSAj2UN0njGCIsx-1" value="人脸检测&lt;br style=&quot;font-size: 14px;&quot;&gt;facedet_v3.0" style="rounded=1;whiteSpace=wrap;html=1;fillColor=#dae8fc;strokeColor=#6c8ebf;fontSize=14;" vertex="1" parent="1">
          <mxGeometry x="412" y="410" width="120" height="60" as="geometry" />
        </mxCell>
        <mxCell id="GNEB_PSAj2UN0njGCIsx-2" value="他趣人脸标签&lt;br style=&quot;font-size: 14px;&quot;&gt;imgtag_taquface_v3.0" style="rounded=1;whiteSpace=wrap;html=1;fillColor=#dae8fc;strokeColor=#6c8ebf;fontSize=14;" vertex="1" parent="1">
          <mxGeometry x="712" y="410" width="120" height="60" as="geometry" />
        </mxCell>
        <mxCell id="GNEB_PSAj2UN0njGCIsx-3" value="人脸检测&lt;br style=&quot;font-size: 14px;&quot;&gt;facedet_v3.0" style="rounded=1;whiteSpace=wrap;html=1;fillColor=#dae8fc;strokeColor=#6c8ebf;fontSize=14;" vertex="1" parent="1">
          <mxGeometry x="-90" y="410" width="120" height="60" as="geometry" />
        </mxCell>
        <mxCell id="GNEB_PSAj2UN0njGCIsx-7" value="国内园区" style="text;strokeColor=none;align=center;fillColor=none;html=1;verticalAlign=middle;whiteSpace=wrap;rounded=0;strokeWidth=7;fontSize=19;" vertex="1" parent="1">
          <mxGeometry x="10" y="290" width="120" height="50" as="geometry" />
        </mxCell>
        <mxCell id="GNEB_PSAj2UN0njGCIsx-9" value="facedet_proc" style="rounded=1;whiteSpace=wrap;html=1;fillColor=#d5e8d4;strokeColor=#82b366;fontSize=14;" vertex="1" parent="1">
          <mxGeometry x="-35" y="530" width="120" height="60" as="geometry" />
        </mxCell>
        <mxCell id="GNEB_PSAj2UN0njGCIsx-10" value="v1011" style="rounded=1;whiteSpace=wrap;html=1;fillColor=#ffe6cc;strokeColor=#d79b00;fontSize=14;" vertex="1" parent="1">
          <mxGeometry x="-90" y="630" width="70" height="40" as="geometry" />
        </mxCell>
        <mxCell id="GNEB_PSAj2UN0njGCIsx-11" value="v1013" style="rounded=1;whiteSpace=wrap;html=1;fillColor=#ffe6cc;strokeColor=#d79b00;fontSize=14;" vertex="1" parent="1">
          <mxGeometry x="-10" y="630" width="70" height="40" as="geometry" />
        </mxCell>
        <mxCell id="GNEB_PSAj2UN0njGCIsx-13" value="facedet_proc" style="rounded=1;whiteSpace=wrap;html=1;fillColor=#d5e8d4;strokeColor=#82b366;fontSize=14;" vertex="1" parent="1">
          <mxGeometry x="550" y="530" width="120" height="60" as="geometry" />
        </mxCell>
        <mxCell id="GNEB_PSAj2UN0njGCIsx-19" value="明厨亮灶-口罩识别&lt;br style=&quot;font-size: 14px;&quot;&gt;facemask_v3.0" style="rounded=1;whiteSpace=wrap;html=1;fillColor=#dae8fc;strokeColor=#6c8ebf;fontSize=14;" vertex="1" parent="1">
          <mxGeometry x="130" y="410" width="120" height="60" as="geometry" />
        </mxCell>
        <mxCell id="GNEB_PSAj2UN0njGCIsx-20" value="明厨亮灶-口罩识别&lt;br style=&quot;font-size: 14px;&quot;&gt;facemask_v3.0" style="rounded=1;whiteSpace=wrap;html=1;fillColor=#dae8fc;strokeColor=#6c8ebf;fontSize=14;" vertex="1" parent="1">
          <mxGeometry x="552" y="410" width="120" height="60" as="geometry" />
        </mxCell>
        <mxCell id="GNEB_PSAj2UN0njGCIsx-105" value="" style="edgeStyle=orthogonalEdgeStyle;rounded=0;orthogonalLoop=1;jettySize=auto;html=1;fontSize=16;" edge="1" parent="1" source="GNEB_PSAj2UN0njGCIsx-23" target="GNEB_PSAj2UN0njGCIsx-77">
          <mxGeometry relative="1" as="geometry" />
        </mxCell>
        <mxCell id="GNEB_PSAj2UN0njGCIsx-23" value="pipline: AI管道" style="rounded=1;whiteSpace=wrap;html=1;fillColor=#dae8fc;strokeColor=#6c8ebf;fontSize=16;" vertex="1" parent="1">
          <mxGeometry x="-360" y="670" width="120" height="60" as="geometry" />
        </mxCell>
        <mxCell id="GNEB_PSAj2UN0njGCIsx-104" value="" style="edgeStyle=orthogonalEdgeStyle;rounded=0;orthogonalLoop=1;jettySize=auto;html=1;fontSize=16;" edge="1" parent="1" source="GNEB_PSAj2UN0njGCIsx-24" target="GNEB_PSAj2UN0njGCIsx-23">
          <mxGeometry relative="1" as="geometry" />
        </mxCell>
        <mxCell id="GNEB_PSAj2UN0njGCIsx-24" value="plugin: AI插件" style="rounded=1;whiteSpace=wrap;html=1;fillColor=#d5e8d4;strokeColor=#82b366;fontSize=16;" vertex="1" parent="1">
          <mxGeometry x="-360" y="760" width="120" height="60" as="geometry" />
        </mxCell>
        <mxCell id="GNEB_PSAj2UN0njGCIsx-103" value="" style="edgeStyle=orthogonalEdgeStyle;rounded=0;orthogonalLoop=1;jettySize=auto;html=1;fontSize=16;" edge="1" parent="1" source="GNEB_PSAj2UN0njGCIsx-25" target="GNEB_PSAj2UN0njGCIsx-24">
          <mxGeometry relative="1" as="geometry" />
        </mxCell>
        <mxCell id="GNEB_PSAj2UN0njGCIsx-25" value="model: AI模型" style="rounded=1;whiteSpace=wrap;html=1;fillColor=#ffe6cc;strokeColor=#d79b00;fontSize=16;" vertex="1" parent="1">
          <mxGeometry x="-358" y="854" width="115" height="50" as="geometry" />
        </mxCell>
        <mxCell id="GNEB_PSAj2UN0njGCIsx-26" value="" style="curved=1;endArrow=classic;html=1;rounded=0;entryX=0.25;entryY=1;entryDx=0;entryDy=0;fontSize=14;" edge="1" parent="1" target="GNEB_PSAj2UN0njGCIsx-9">
          <mxGeometry width="50" height="50" relative="1" as="geometry">
            <mxPoint x="-60" y="630" as="sourcePoint" />
            <mxPoint x="-10" y="580" as="targetPoint" />
            <Array as="points">
              <mxPoint x="-10" y="630" />
            </Array>
          </mxGeometry>
        </mxCell>
        <mxCell id="GNEB_PSAj2UN0njGCIsx-31" value="1011" style="edgeLabel;html=1;align=center;verticalAlign=middle;resizable=0;points=[];fontSize=14;" vertex="1" connectable="0" parent="GNEB_PSAj2UN0njGCIsx-26">
          <mxGeometry x="0.4204" y="8" relative="1" as="geometry">
            <mxPoint as="offset" />
          </mxGeometry>
        </mxCell>
        <mxCell id="GNEB_PSAj2UN0njGCIsx-29" value="1011" style="curved=1;endArrow=classic;html=1;rounded=0;exitX=0.5;exitY=0;exitDx=0;exitDy=0;entryX=0.5;entryY=1;entryDx=0;entryDy=0;fontSize=14;" edge="1" parent="1" source="GNEB_PSAj2UN0njGCIsx-9" target="GNEB_PSAj2UN0njGCIsx-3">
          <mxGeometry x="-0.0019" width="50" height="50" relative="1" as="geometry">
            <mxPoint x="35" y="440" as="sourcePoint" />
            <mxPoint x="-20" y="380" as="targetPoint" />
            <Array as="points">
              <mxPoint x="-10" y="500" />
            </Array>
            <mxPoint as="offset" />
          </mxGeometry>
        </mxCell>
        <mxCell id="GNEB_PSAj2UN0njGCIsx-32" value="1011" style="curved=1;endArrow=classic;html=1;rounded=0;exitX=0.5;exitY=0;exitDx=0;exitDy=0;fontSize=14;entryX=0.5;entryY=1;entryDx=0;entryDy=0;" edge="1" parent="1" source="GNEB_PSAj2UN0njGCIsx-9" target="GNEB_PSAj2UN0njGCIsx-19">
          <mxGeometry x="-0.0019" width="50" height="50" relative="1" as="geometry">
            <mxPoint x="35" y="540" as="sourcePoint" />
            <mxPoint x="-20" y="480" as="targetPoint" />
            <Array as="points">
              <mxPoint y="510" />
            </Array>
            <mxPoint as="offset" />
          </mxGeometry>
        </mxCell>
        <mxCell id="GNEB_PSAj2UN0njGCIsx-33" value="v1011" style="rounded=1;whiteSpace=wrap;html=1;fillColor=#ffe6cc;strokeColor=#d79b00;fontSize=14;" vertex="1" parent="1">
          <mxGeometry x="495" y="630" width="70" height="40" as="geometry" />
        </mxCell>
        <mxCell id="GNEB_PSAj2UN0njGCIsx-34" value="v1013" style="rounded=1;whiteSpace=wrap;html=1;fillColor=#ffe6cc;strokeColor=#d79b00;fontSize=14;" vertex="1" parent="1">
          <mxGeometry x="575" y="630" width="70" height="40" as="geometry" />
        </mxCell>
        <mxCell id="GNEB_PSAj2UN0njGCIsx-38" value="1013" style="curved=1;endArrow=classic;html=1;rounded=0;entryX=0.5;entryY=1;entryDx=0;entryDy=0;exitX=0.5;exitY=0;exitDx=0;exitDy=0;fontSize=14;" edge="1" parent="1" source="GNEB_PSAj2UN0njGCIsx-34">
          <mxGeometry width="50" height="50" relative="1" as="geometry">
            <mxPoint x="535" y="640" as="sourcePoint" />
            <mxPoint x="610" y="590" as="targetPoint" />
            <Array as="points">
              <mxPoint x="615" y="610" />
            </Array>
          </mxGeometry>
        </mxCell>
        <mxCell id="GNEB_PSAj2UN0njGCIsx-41" value="1013" style="curved=1;endArrow=classic;html=1;rounded=0;exitX=0.5;exitY=0;exitDx=0;exitDy=0;entryX=0.5;entryY=1;entryDx=0;entryDy=0;fontSize=14;" edge="1" parent="1" source="GNEB_PSAj2UN0njGCIsx-13">
          <mxGeometry x="0.0016" width="50" height="50" relative="1" as="geometry">
            <mxPoint x="525" y="530" as="sourcePoint" />
            <mxPoint x="470" y="470" as="targetPoint" />
            <Array as="points">
              <mxPoint x="490" y="500" />
            </Array>
            <mxPoint as="offset" />
          </mxGeometry>
        </mxCell>
        <mxCell id="GNEB_PSAj2UN0njGCIsx-42" value="1013" style="curved=1;endArrow=classic;html=1;rounded=0;exitX=0.5;exitY=0;exitDx=0;exitDy=0;fontSize=14;entryX=0.5;entryY=1;entryDx=0;entryDy=0;" edge="1" parent="1" target="GNEB_PSAj2UN0njGCIsx-20">
          <mxGeometry x="-0.0019" width="50" height="50" relative="1" as="geometry">
            <mxPoint x="615" y="530" as="sourcePoint" />
            <mxPoint x="780" y="470" as="targetPoint" />
            <Array as="points">
              <mxPoint x="590" y="510" />
            </Array>
            <mxPoint as="offset" />
          </mxGeometry>
        </mxCell>
        <mxCell id="GNEB_PSAj2UN0njGCIsx-43" value="1013" style="curved=1;endArrow=classic;html=1;rounded=0;fontSize=14;entryX=0.5;entryY=1;entryDx=0;entryDy=0;" edge="1" parent="1" target="GNEB_PSAj2UN0njGCIsx-2">
          <mxGeometry x="-0.0019" width="50" height="50" relative="1" as="geometry">
            <mxPoint x="610" y="530" as="sourcePoint" />
            <mxPoint x="622" y="480" as="targetPoint" />
            <Array as="points">
              <mxPoint x="600" y="520" />
            </Array>
            <mxPoint as="offset" />
          </mxGeometry>
        </mxCell>
        <mxCell id="GNEB_PSAj2UN0njGCIsx-44" value="" style="rounded=0;whiteSpace=wrap;html=1;" vertex="1" parent="1">
          <mxGeometry x="370" y="790" width="500" height="410" as="geometry" />
        </mxCell>
        <mxCell id="GNEB_PSAj2UN0njGCIsx-45" value="" style="rounded=0;whiteSpace=wrap;html=1;" vertex="1" parent="1">
          <mxGeometry x="-170" y="790" width="500" height="410" as="geometry" />
        </mxCell>
        <mxCell id="GNEB_PSAj2UN0njGCIsx-46" value="人脸检测&lt;br style=&quot;font-size: 14px;&quot;&gt;facedet_v3.0" style="rounded=1;whiteSpace=wrap;html=1;fillColor=#dae8fc;strokeColor=#6c8ebf;fontSize=14;" vertex="1" parent="1">
          <mxGeometry x="412" y="910" width="120" height="60" as="geometry" />
        </mxCell>
        <mxCell id="GNEB_PSAj2UN0njGCIsx-47" value="他趣人脸标签&lt;br style=&quot;font-size: 14px;&quot;&gt;imgtag_taquface_v3.0" style="rounded=1;whiteSpace=wrap;html=1;fillColor=#dae8fc;strokeColor=#6c8ebf;fontSize=14;" vertex="1" parent="1">
          <mxGeometry x="712" y="910" width="120" height="60" as="geometry" />
        </mxCell>
        <mxCell id="GNEB_PSAj2UN0njGCIsx-48" value="人脸检测&lt;br style=&quot;font-size: 14px;&quot;&gt;facedet_v3.0" style="rounded=1;whiteSpace=wrap;html=1;fillColor=#dae8fc;strokeColor=#6c8ebf;fontSize=14;" vertex="1" parent="1">
          <mxGeometry x="-90" y="910" width="120" height="60" as="geometry" />
        </mxCell>
        <mxCell id="GNEB_PSAj2UN0njGCIsx-51" value="facedet_proc" style="rounded=1;whiteSpace=wrap;html=1;fillColor=#d5e8d4;strokeColor=#82b366;fontSize=14;" vertex="1" parent="1">
          <mxGeometry x="-35" y="1030" width="120" height="60" as="geometry" />
        </mxCell>
        <mxCell id="GNEB_PSAj2UN0njGCIsx-52" value="v1011" style="rounded=1;whiteSpace=wrap;html=1;fillColor=#ffe6cc;strokeColor=#d79b00;fontSize=14;" vertex="1" parent="1">
          <mxGeometry x="-90" y="1130" width="70" height="40" as="geometry" />
        </mxCell>
        <mxCell id="GNEB_PSAj2UN0njGCIsx-53" value="v1013" style="rounded=1;whiteSpace=wrap;html=1;fillColor=#ffe6cc;strokeColor=#d79b00;fontSize=14;" vertex="1" parent="1">
          <mxGeometry x="-10" y="1130" width="70" height="40" as="geometry" />
        </mxCell>
        <mxCell id="GNEB_PSAj2UN0njGCIsx-54" value="v1014" style="rounded=1;whiteSpace=wrap;html=1;fillColor=#ffe6cc;strokeColor=none;strokeWidth=3;dashed=1;shadow=1;glass=0;fontSize=14;" vertex="1" parent="1">
          <mxGeometry x="70" y="1130" width="70" height="40" as="geometry" />
        </mxCell>
        <mxCell id="GNEB_PSAj2UN0njGCIsx-55" value="facedet_proc" style="rounded=1;whiteSpace=wrap;html=1;fillColor=#d5e8d4;strokeColor=#82b366;fontSize=14;" vertex="1" parent="1">
          <mxGeometry x="550" y="1030" width="120" height="60" as="geometry" />
        </mxCell>
        <mxCell id="GNEB_PSAj2UN0njGCIsx-56" value="明厨亮灶-口罩识别&lt;br style=&quot;font-size: 14px;&quot;&gt;facemask_v3.0" style="rounded=1;whiteSpace=wrap;html=1;fillColor=#dae8fc;strokeColor=#6c8ebf;fontSize=14;" vertex="1" parent="1">
          <mxGeometry x="130" y="910" width="120" height="60" as="geometry" />
        </mxCell>
        <mxCell id="GNEB_PSAj2UN0njGCIsx-57" value="明厨亮灶-口罩识别&lt;br style=&quot;font-size: 14px;&quot;&gt;facemask_v3.0" style="rounded=1;whiteSpace=wrap;html=1;fillColor=#dae8fc;strokeColor=#6c8ebf;fontSize=14;" vertex="1" parent="1">
          <mxGeometry x="552" y="910" width="120" height="60" as="geometry" />
        </mxCell>
        <mxCell id="GNEB_PSAj2UN0njGCIsx-58" value="" style="curved=1;endArrow=classic;html=1;rounded=0;entryX=0.25;entryY=1;entryDx=0;entryDy=0;fontSize=14;" edge="1" parent="1" target="GNEB_PSAj2UN0njGCIsx-51">
          <mxGeometry width="50" height="50" relative="1" as="geometry">
            <mxPoint x="-60" y="1130" as="sourcePoint" />
            <mxPoint x="-10" y="1080" as="targetPoint" />
            <Array as="points">
              <mxPoint x="-10" y="1130" />
            </Array>
          </mxGeometry>
        </mxCell>
        <mxCell id="GNEB_PSAj2UN0njGCIsx-59" value="1011" style="edgeLabel;html=1;align=center;verticalAlign=middle;resizable=0;points=[];fontSize=14;" vertex="1" connectable="0" parent="GNEB_PSAj2UN0njGCIsx-58">
          <mxGeometry x="0.4204" y="8" relative="1" as="geometry">
            <mxPoint as="offset" />
          </mxGeometry>
        </mxCell>
        <mxCell id="GNEB_PSAj2UN0njGCIsx-60" value="1013" style="curved=1;endArrow=classic;html=1;rounded=0;entryX=0.5;entryY=1;entryDx=0;entryDy=0;exitX=0.5;exitY=0;exitDx=0;exitDy=0;fontSize=14;" edge="1" parent="1" source="GNEB_PSAj2UN0njGCIsx-53" target="GNEB_PSAj2UN0njGCIsx-51">
          <mxGeometry width="50" height="50" relative="1" as="geometry">
            <mxPoint x="-50" y="1140" as="sourcePoint" />
            <mxPoint x="5" y="1100" as="targetPoint" />
            <Array as="points">
              <mxPoint x="30" y="1110" />
            </Array>
          </mxGeometry>
        </mxCell>
        <mxCell id="GNEB_PSAj2UN0njGCIsx-61" value="" style="curved=1;endArrow=classic;html=1;rounded=0;entryX=0.692;entryY=1;entryDx=0;entryDy=0;exitX=0.5;exitY=0;exitDx=0;exitDy=0;entryPerimeter=0;fontSize=14;" edge="1" parent="1" source="GNEB_PSAj2UN0njGCIsx-54" target="GNEB_PSAj2UN0njGCIsx-51">
          <mxGeometry width="50" height="50" relative="1" as="geometry">
            <mxPoint x="35" y="1140" as="sourcePoint" />
            <mxPoint x="35" y="1100" as="targetPoint" />
            <Array as="points">
              <mxPoint x="40" y="1120" />
            </Array>
          </mxGeometry>
        </mxCell>
        <mxCell id="GNEB_PSAj2UN0njGCIsx-76" value="1014" style="edgeLabel;html=1;align=center;verticalAlign=middle;resizable=0;points=[];fontSize=14;" vertex="1" connectable="0" parent="GNEB_PSAj2UN0njGCIsx-61">
          <mxGeometry x="-0.0472" y="-7" relative="1" as="geometry">
            <mxPoint as="offset" />
          </mxGeometry>
        </mxCell>
        <mxCell id="GNEB_PSAj2UN0njGCIsx-62" value="1014" style="curved=1;endArrow=classic;html=1;rounded=0;exitX=0.5;exitY=0;exitDx=0;exitDy=0;entryX=0.5;entryY=1;entryDx=0;entryDy=0;fontSize=14;" edge="1" parent="1" source="GNEB_PSAj2UN0njGCIsx-51" target="GNEB_PSAj2UN0njGCIsx-48">
          <mxGeometry x="-0.0019" width="50" height="50" relative="1" as="geometry">
            <mxPoint x="35" y="940" as="sourcePoint" />
            <mxPoint x="-20" y="880" as="targetPoint" />
            <Array as="points" />
            <mxPoint as="offset" />
          </mxGeometry>
        </mxCell>
        <mxCell id="GNEB_PSAj2UN0njGCIsx-63" value="1011" style="curved=1;endArrow=classic;html=1;rounded=0;exitX=0.5;exitY=0;exitDx=0;exitDy=0;fontSize=14;entryX=0.5;entryY=1;entryDx=0;entryDy=0;" edge="1" parent="1" source="GNEB_PSAj2UN0njGCIsx-51" target="GNEB_PSAj2UN0njGCIsx-56">
          <mxGeometry x="-0.0019" width="50" height="50" relative="1" as="geometry">
            <mxPoint x="35" y="1040" as="sourcePoint" />
            <mxPoint x="-20" y="980" as="targetPoint" />
            <Array as="points">
              <mxPoint y="1010" />
            </Array>
            <mxPoint as="offset" />
          </mxGeometry>
        </mxCell>
        <mxCell id="GNEB_PSAj2UN0njGCIsx-64" value="v1011" style="rounded=1;whiteSpace=wrap;html=1;fillColor=#ffe6cc;strokeColor=#d79b00;fontSize=14;" vertex="1" parent="1">
          <mxGeometry x="495" y="1130" width="70" height="40" as="geometry" />
        </mxCell>
        <mxCell id="GNEB_PSAj2UN0njGCIsx-65" value="v1013" style="rounded=1;whiteSpace=wrap;html=1;fillColor=#ffe6cc;strokeColor=#d79b00;fontSize=14;" vertex="1" parent="1">
          <mxGeometry x="575" y="1130" width="70" height="40" as="geometry" />
        </mxCell>
        <mxCell id="GNEB_PSAj2UN0njGCIsx-66" value="v1014" style="rounded=1;whiteSpace=wrap;html=1;fillColor=#ffe6cc;strokeColor=none;strokeWidth=3;dashed=1;shadow=1;fontSize=14;" vertex="1" parent="1">
          <mxGeometry x="655" y="1130" width="70" height="40" as="geometry" />
        </mxCell>
        <mxCell id="GNEB_PSAj2UN0njGCIsx-67" value="" style="curved=1;endArrow=classic;html=1;rounded=0;entryX=0.25;entryY=1;entryDx=0;entryDy=0;fontSize=14;" edge="1" parent="1">
          <mxGeometry width="50" height="50" relative="1" as="geometry">
            <mxPoint x="525" y="1130" as="sourcePoint" />
            <mxPoint x="580" y="1090" as="targetPoint" />
            <Array as="points">
              <mxPoint x="575" y="1130" />
            </Array>
          </mxGeometry>
        </mxCell>
        <mxCell id="GNEB_PSAj2UN0njGCIsx-68" value="1011" style="edgeLabel;html=1;align=center;verticalAlign=middle;resizable=0;points=[];fontSize=14;" vertex="1" connectable="0" parent="GNEB_PSAj2UN0njGCIsx-67">
          <mxGeometry x="0.4204" y="8" relative="1" as="geometry">
            <mxPoint as="offset" />
          </mxGeometry>
        </mxCell>
        <mxCell id="GNEB_PSAj2UN0njGCIsx-69" value="1013" style="curved=1;endArrow=classic;html=1;rounded=0;entryX=0.5;entryY=1;entryDx=0;entryDy=0;exitX=0.5;exitY=0;exitDx=0;exitDy=0;fontSize=14;" edge="1" parent="1" source="GNEB_PSAj2UN0njGCIsx-65">
          <mxGeometry width="50" height="50" relative="1" as="geometry">
            <mxPoint x="535" y="1140" as="sourcePoint" />
            <mxPoint x="610" y="1090" as="targetPoint" />
            <Array as="points">
              <mxPoint x="615" y="1110" />
            </Array>
          </mxGeometry>
        </mxCell>
        <mxCell id="GNEB_PSAj2UN0njGCIsx-70" value="" style="curved=1;endArrow=classic;html=1;rounded=0;entryX=0.692;entryY=1;entryDx=0;entryDy=0;exitX=0.5;exitY=0;exitDx=0;exitDy=0;entryPerimeter=0;fontSize=14;" edge="1" parent="1" source="GNEB_PSAj2UN0njGCIsx-66">
          <mxGeometry width="50" height="50" relative="1" as="geometry">
            <mxPoint x="620" y="1140" as="sourcePoint" />
            <mxPoint x="633" y="1090" as="targetPoint" />
            <Array as="points">
              <mxPoint x="625" y="1120" />
            </Array>
          </mxGeometry>
        </mxCell>
        <mxCell id="GNEB_PSAj2UN0njGCIsx-101" value="1014" style="edgeLabel;html=1;align=center;verticalAlign=middle;resizable=0;points=[];fontSize=14;" vertex="1" connectable="0" parent="GNEB_PSAj2UN0njGCIsx-70">
          <mxGeometry x="-0.194" y="-3" relative="1" as="geometry">
            <mxPoint as="offset" />
          </mxGeometry>
        </mxCell>
        <mxCell id="GNEB_PSAj2UN0njGCIsx-71" value="1014" style="curved=1;endArrow=classic;html=1;rounded=0;exitX=0.5;exitY=0;exitDx=0;exitDy=0;entryX=0.5;entryY=1;entryDx=0;entryDy=0;fontSize=14;" edge="1" parent="1" source="GNEB_PSAj2UN0njGCIsx-55">
          <mxGeometry x="0.0016" width="50" height="50" relative="1" as="geometry">
            <mxPoint x="525" y="1030" as="sourcePoint" />
            <mxPoint x="470" y="970" as="targetPoint" />
            <Array as="points">
              <mxPoint x="490" y="1000" />
            </Array>
            <mxPoint as="offset" />
          </mxGeometry>
        </mxCell>
        <mxCell id="GNEB_PSAj2UN0njGCIsx-72" value="1011" style="curved=1;endArrow=classic;html=1;rounded=0;exitX=0.5;exitY=0;exitDx=0;exitDy=0;fontSize=14;entryX=0.5;entryY=1;entryDx=0;entryDy=0;" edge="1" parent="1" target="GNEB_PSAj2UN0njGCIsx-57">
          <mxGeometry x="-0.0019" width="50" height="50" relative="1" as="geometry">
            <mxPoint x="615" y="1030" as="sourcePoint" />
            <mxPoint x="780" y="970" as="targetPoint" />
            <Array as="points">
              <mxPoint x="590" y="1010" />
            </Array>
            <mxPoint as="offset" />
          </mxGeometry>
        </mxCell>
        <mxCell id="GNEB_PSAj2UN0njGCIsx-73" value="1013" style="curved=1;endArrow=classic;html=1;rounded=0;fontSize=14;entryX=0.5;entryY=1;entryDx=0;entryDy=0;" edge="1" parent="1" target="GNEB_PSAj2UN0njGCIsx-47">
          <mxGeometry x="-0.0019" width="50" height="50" relative="1" as="geometry">
            <mxPoint x="610" y="1030" as="sourcePoint" />
            <mxPoint x="622" y="980" as="targetPoint" />
            <Array as="points">
              <mxPoint x="600" y="1020" />
            </Array>
            <mxPoint as="offset" />
          </mxGeometry>
        </mxCell>
        <mxCell id="GNEB_PSAj2UN0njGCIsx-74" value="&lt;font style=&quot;font-size: 22px;&quot;&gt;现网&lt;/font&gt;" style="text;strokeColor=none;align=center;fillColor=none;html=1;verticalAlign=middle;whiteSpace=wrap;rounded=0;" vertex="1" parent="1">
          <mxGeometry x="-180" y="240" width="120" height="50" as="geometry" />
        </mxCell>
        <mxCell id="GNEB_PSAj2UN0njGCIsx-75" value="&lt;span style=&quot;font-size: 22px;&quot;&gt;更新后：&lt;/span&gt;" style="text;strokeColor=none;align=center;fillColor=none;html=1;verticalAlign=middle;whiteSpace=wrap;rounded=0;" vertex="1" parent="1">
          <mxGeometry x="-170" y="730" width="120" height="50" as="geometry" />
        </mxCell>
        <mxCell id="GNEB_PSAj2UN0njGCIsx-77" value="客户" style="rounded=1;whiteSpace=wrap;html=1;fillColor=#f8cecc;strokeColor=#b85450;fontSize=16;" vertex="1" parent="1">
          <mxGeometry x="-360" y="570" width="120" height="60" as="geometry" />
        </mxCell>
        <mxCell id="GNEB_PSAj2UN0njGCIsx-78" value="派派" style="rounded=1;whiteSpace=wrap;html=1;fillColor=#f8cecc;strokeColor=#b85450;fontSize=14;" vertex="1" parent="1">
          <mxGeometry x="-160" y="340" width="90" height="30" as="geometry" />
        </mxCell>
        <mxCell id="GNEB_PSAj2UN0njGCIsx-79" value="鲁班" style="rounded=1;whiteSpace=wrap;html=1;fillColor=#f8cecc;strokeColor=#b85450;fontSize=14;" vertex="1" parent="1">
          <mxGeometry x="-50" y="340" width="90" height="30" as="geometry" />
        </mxCell>
        <mxCell id="GNEB_PSAj2UN0njGCIsx-81" value="" style="curved=1;endArrow=classic;html=1;rounded=0;entryX=0.5;entryY=1;entryDx=0;entryDy=0;exitX=0.45;exitY=0.011;exitDx=0;exitDy=0;exitPerimeter=0;fontSize=14;" edge="1" parent="1" source="GNEB_PSAj2UN0njGCIsx-3" target="GNEB_PSAj2UN0njGCIsx-78">
          <mxGeometry width="50" height="50" relative="1" as="geometry">
            <mxPoint x="270" y="440" as="sourcePoint" />
            <mxPoint x="320" y="390" as="targetPoint" />
            <Array as="points">
              <mxPoint x="-80" y="390" />
              <mxPoint x="-100" y="390" />
            </Array>
          </mxGeometry>
        </mxCell>
        <mxCell id="GNEB_PSAj2UN0njGCIsx-82" value="" style="curved=1;endArrow=classic;html=1;rounded=0;entryX=0.5;entryY=1;entryDx=0;entryDy=0;exitX=0.5;exitY=0;exitDx=0;exitDy=0;fontSize=14;" edge="1" parent="1" source="GNEB_PSAj2UN0njGCIsx-3" target="GNEB_PSAj2UN0njGCIsx-79">
          <mxGeometry width="50" height="50" relative="1" as="geometry">
            <mxPoint x="-26" y="421" as="sourcePoint" />
            <mxPoint x="-105" y="380" as="targetPoint" />
            <Array as="points">
              <mxPoint x="-20" y="400" />
              <mxPoint x="-20" y="390" />
            </Array>
          </mxGeometry>
        </mxCell>
        <mxCell id="GNEB_PSAj2UN0njGCIsx-83" value="视图" style="rounded=1;whiteSpace=wrap;html=1;fillColor=#f8cecc;strokeColor=#b85450;fontSize=14;" vertex="1" parent="1">
          <mxGeometry x="145" y="340" width="90" height="30" as="geometry" />
        </mxCell>
        <mxCell id="GNEB_PSAj2UN0njGCIsx-84" value="" style="curved=1;endArrow=classic;html=1;rounded=0;exitX=0.5;exitY=0;exitDx=0;exitDy=0;entryX=0.5;entryY=1;entryDx=0;entryDy=0;fontSize=14;" edge="1" parent="1" source="GNEB_PSAj2UN0njGCIsx-19" target="GNEB_PSAj2UN0njGCIsx-83">
          <mxGeometry width="50" height="50" relative="1" as="geometry">
            <mxPoint x="-20" y="420" as="sourcePoint" />
            <mxPoint x="5" y="380" as="targetPoint" />
            <Array as="points">
              <mxPoint x="190" y="390" />
              <mxPoint x="200" y="390" />
            </Array>
          </mxGeometry>
        </mxCell>
        <mxCell id="GNEB_PSAj2UN0njGCIsx-85" value="新加坡园区" style="text;strokeColor=none;align=center;fillColor=none;html=1;verticalAlign=middle;whiteSpace=wrap;rounded=0;strokeWidth=7;fontSize=19;" vertex="1" parent="1">
          <mxGeometry x="560" y="290" width="120" height="50" as="geometry" />
        </mxCell>
        <mxCell id="GNEB_PSAj2UN0njGCIsx-87" value="他趣" style="rounded=1;whiteSpace=wrap;html=1;fillColor=#f8cecc;strokeColor=#b85450;fontSize=14;" vertex="1" parent="1">
          <mxGeometry x="720" y="340" width="90" height="30" as="geometry" />
        </mxCell>
        <mxCell id="GNEB_PSAj2UN0njGCIsx-88" value="" style="curved=1;endArrow=classic;html=1;rounded=0;exitX=0.5;exitY=0;exitDx=0;exitDy=0;entryX=0.5;entryY=1;entryDx=0;entryDy=0;fontSize=14;" edge="1" parent="1" target="GNEB_PSAj2UN0njGCIsx-87">
          <mxGeometry width="50" height="50" relative="1" as="geometry">
            <mxPoint x="765" y="410" as="sourcePoint" />
            <mxPoint x="580" y="380" as="targetPoint" />
            <Array as="points">
              <mxPoint x="765" y="390" />
              <mxPoint x="775" y="390" />
            </Array>
          </mxGeometry>
        </mxCell>
        <mxCell id="GNEB_PSAj2UN0njGCIsx-89" value="国内园区" style="text;strokeColor=none;align=center;fillColor=none;html=1;verticalAlign=middle;whiteSpace=wrap;rounded=0;strokeWidth=7;fontSize=19;" vertex="1" parent="1">
          <mxGeometry x="20" y="790" width="120" height="50" as="geometry" />
        </mxCell>
        <mxCell id="GNEB_PSAj2UN0njGCIsx-90" value="派派" style="rounded=1;whiteSpace=wrap;html=1;fillColor=#f8cecc;strokeColor=#b85450;fontSize=14;" vertex="1" parent="1">
          <mxGeometry x="-150" y="840" width="90" height="30" as="geometry" />
        </mxCell>
        <mxCell id="GNEB_PSAj2UN0njGCIsx-91" value="鲁班" style="rounded=1;whiteSpace=wrap;html=1;fillColor=#f8cecc;strokeColor=#b85450;fontSize=14;" vertex="1" parent="1">
          <mxGeometry x="-40" y="840" width="90" height="30" as="geometry" />
        </mxCell>
        <mxCell id="GNEB_PSAj2UN0njGCIsx-92" value="" style="curved=1;endArrow=classic;html=1;rounded=0;entryX=0.5;entryY=1;entryDx=0;entryDy=0;exitX=0.45;exitY=0.011;exitDx=0;exitDy=0;exitPerimeter=0;fontSize=14;" edge="1" parent="1" target="GNEB_PSAj2UN0njGCIsx-90">
          <mxGeometry width="50" height="50" relative="1" as="geometry">
            <mxPoint x="-26" y="911" as="sourcePoint" />
            <mxPoint x="330" y="890" as="targetPoint" />
            <Array as="points">
              <mxPoint x="-70" y="890" />
              <mxPoint x="-90" y="890" />
            </Array>
          </mxGeometry>
        </mxCell>
        <mxCell id="GNEB_PSAj2UN0njGCIsx-93" value="" style="curved=1;endArrow=classic;html=1;rounded=0;entryX=0.5;entryY=1;entryDx=0;entryDy=0;exitX=0.5;exitY=0;exitDx=0;exitDy=0;fontSize=14;" edge="1" parent="1" target="GNEB_PSAj2UN0njGCIsx-91">
          <mxGeometry width="50" height="50" relative="1" as="geometry">
            <mxPoint x="-20" y="910" as="sourcePoint" />
            <mxPoint x="-95" y="880" as="targetPoint" />
            <Array as="points">
              <mxPoint x="-10" y="900" />
              <mxPoint x="-10" y="890" />
            </Array>
          </mxGeometry>
        </mxCell>
        <mxCell id="GNEB_PSAj2UN0njGCIsx-94" value="视图" style="rounded=1;whiteSpace=wrap;html=1;fillColor=#f8cecc;strokeColor=#b85450;fontSize=14;" vertex="1" parent="1">
          <mxGeometry x="155" y="840" width="90" height="30" as="geometry" />
        </mxCell>
        <mxCell id="GNEB_PSAj2UN0njGCIsx-95" value="" style="curved=1;endArrow=classic;html=1;rounded=0;exitX=0.5;exitY=0;exitDx=0;exitDy=0;entryX=0.5;entryY=1;entryDx=0;entryDy=0;fontSize=14;" edge="1" parent="1" target="GNEB_PSAj2UN0njGCIsx-94">
          <mxGeometry width="50" height="50" relative="1" as="geometry">
            <mxPoint x="200" y="910" as="sourcePoint" />
            <mxPoint x="15" y="880" as="targetPoint" />
            <Array as="points">
              <mxPoint x="200" y="890" />
              <mxPoint x="210" y="890" />
            </Array>
          </mxGeometry>
        </mxCell>
        <mxCell id="GNEB_PSAj2UN0njGCIsx-96" value="新加坡园区" style="text;strokeColor=none;align=center;fillColor=none;html=1;verticalAlign=middle;whiteSpace=wrap;rounded=0;strokeWidth=7;fontSize=19;" vertex="1" parent="1">
          <mxGeometry x="570" y="790" width="120" height="50" as="geometry" />
        </mxCell>
        <mxCell id="GNEB_PSAj2UN0njGCIsx-97" value="他趣" style="rounded=1;whiteSpace=wrap;html=1;fillColor=#f8cecc;strokeColor=#b85450;fontSize=14;" vertex="1" parent="1">
          <mxGeometry x="730" y="840" width="90" height="30" as="geometry" />
        </mxCell>
        <mxCell id="GNEB_PSAj2UN0njGCIsx-98" value="" style="curved=1;endArrow=classic;html=1;rounded=0;exitX=0.5;exitY=0;exitDx=0;exitDy=0;entryX=0.5;entryY=1;entryDx=0;entryDy=0;fontSize=14;" edge="1" parent="1" target="GNEB_PSAj2UN0njGCIsx-97">
          <mxGeometry width="50" height="50" relative="1" as="geometry">
            <mxPoint x="775" y="910" as="sourcePoint" />
            <mxPoint x="590" y="880" as="targetPoint" />
            <Array as="points">
              <mxPoint x="775" y="890" />
              <mxPoint x="785" y="890" />
            </Array>
          </mxGeometry>
        </mxCell>
        <mxCell id="GNEB_PSAj2UN0njGCIsx-106" value="" style="shape=flexArrow;endArrow=classic;html=1;rounded=0;endWidth=12;endSize=9.75;entryX=0.5;entryY=1;entryDx=0;entryDy=0;fillColor=#FF3333;gradientColor=none;fontSize=14;" edge="1" parent="1" target="GNEB_PSAj2UN0njGCIsx-54">
          <mxGeometry width="50" height="50" relative="1" as="geometry">
            <mxPoint x="80" y="1230" as="sourcePoint" />
            <mxPoint x="120.32516129032246" y="1260" as="targetPoint" />
          </mxGeometry>
        </mxCell>
        <mxCell id="GNEB_PSAj2UN0njGCIsx-107" value="" style="shape=flexArrow;endArrow=classic;html=1;rounded=0;endWidth=12;endSize=9.75;entryX=0.5;entryY=1;entryDx=0;entryDy=0;fillColor=#FF3333;gradientColor=none;fontSize=14;" edge="1" parent="1">
          <mxGeometry width="50" height="50" relative="1" as="geometry">
            <mxPoint x="665" y="1230" as="sourcePoint" />
            <mxPoint x="690" y="1170" as="targetPoint" />
          </mxGeometry>
        </mxCell>
      </root>
    </mxGraphModel>
  </diagram>
</mxfile>
